<?xml version="1.0" encoding="UTF-8" standalone="no"?>
<!DOCTYPE svg PUBLIC "-//W3C//DTD SVG 1.0//EN" "http://www.w3.org/TR/2001/PR-SVG-20010719/DTD/svg10.dtd">
<svg width="47cm" height="31cm" viewBox="98 35 938 618" xmlns="http://www.w3.org/2000/svg" xmlns:xlink="http://www.w3.org/1999/xlink">
  <g>
    <rect style="fill: #ffffff" x="299" y="512.516" width="117" height="54"/>
    <rect style="fill: none; fill-opacity:0; stroke-width: 2; stroke: #000000" x="299" y="512.516" width="117" height="54"/>
    <text font-size="12.8" style="fill: #000000;text-anchor:middle;font-family:sans-serif;font-style:normal;font-weight:normal" x="357.5" y="543.416">
      <tspan x="357.5" y="543.416"></tspan>
    </text>
  </g>
  <g>
    <rect style="fill: #ffffff" x="479" y="55" width="373" height="77"/>
    <rect style="fill: none; fill-opacity:0; stroke-width: 2; stroke: #000000" x="479" y="55" width="373" height="77"/>
    <text font-size="12.8" style="fill: #000000;text-anchor:middle;font-family:sans-serif;font-style:normal;font-weight:normal" x="665.5" y="97.4">
      <tspan x="665.5" y="97.4"></tspan>
    </text>
  </g>
  <g>
    <rect style="fill: #ffffff" x="307" y="210" width="114" height="61"/>
    <rect style="fill: none; fill-opacity:0; stroke-width: 2; stroke: #000000" x="307" y="210" width="114" height="61"/>
    <text font-size="12.8" style="fill: #000000;text-anchor:middle;font-family:sans-serif;font-style:normal;font-weight:normal" x="364" y="244.4">
      <tspan x="364" y="244.4"></tspan>
    </text>
  </g>
  <g>
    <ellipse style="fill: #ffffff" cx="131" cy="204.25" rx="6" ry="6"/>
    <ellipse style="fill: none; fill-opacity:0; stroke-width: 2; stroke: #000000" cx="131" cy="204.25" rx="6" ry="6"/>
    <line style="fill: none; fill-opacity:0; stroke-width: 2; stroke: #000000" x1="107" y1="216.25" x2="155" y2="216.25"/>
    <line style="fill: none; fill-opacity:0; stroke-width: 2; stroke: #000000" x1="131" y1="210.25" x2="131" y2="240.25"/>
    <line style="fill: none; fill-opacity:0; stroke-width: 2; stroke: #000000" x1="131" y1="240.25" x2="107" y2="266.25"/>
    <line style="fill: none; fill-opacity:0; stroke-width: 2; stroke: #000000" x1="131" y1="240.25" x2="155" y2="266.25"/>
    <text font-size="12.8" style="fill: #000000;text-anchor:middle;font-family:sans-serif;font-style:normal;font-weight:normal" x="131" y="290.15">
      <tspan x="131" y="290.15">User</tspan>
    </text>
  </g>
  <g>
    <rect style="fill: #ffffff" x="315.976" y="222.25" width="96.05" height="38"/>
    <rect style="fill: none; fill-opacity:0; stroke-width: 2; stroke: #000000" x="315.976" y="222.25" width="96.05" height="38"/>
    <text font-size="12.8" style="fill: #000000;text-anchor:middle;font-family:sans-serif;font-style:normal;font-weight:normal" x="364.001" y="245.15">
      <tspan x="364.001" y="245.15">Web Server</tspan>
    </text>
  </g>
  <g>
    <path style="fill: none; fill-opacity:0; stroke-width: 2; stroke: #ff0000" d="M 358.795,214.044 A 138.169,138.169 0 0 0 156,186.25"/>
    <polygon style="fill: #ff0000" points="362.869,220.321 353.499,214.221 359.077,213.85 362.127,209.165 "/>
    <polygon style="fill: none; fill-opacity:0; stroke-width: 2; stroke: #ff0000" points="362.869,220.321 353.499,214.221 359.077,213.85 362.127,209.165 "/>
  </g>
  <g>
    <path style="fill: none; fill-opacity:0; stroke-width: 2; stroke: #0000ff" d="M 162.916,301.072 A 126.987,126.987 0 0 0 364,260.25"/>
    <polygon style="fill: #0000ff" points="157.531,295.88 168.021,299.747 162.665,301.347 160.731,306.592 "/>
    <polygon style="fill: none; fill-opacity:0; stroke-width: 2; stroke: #0000ff" points="157.531,295.88 168.021,299.747 162.665,301.347 160.731,306.592 "/>
  </g>
  <text font-size="12.8" style="fill: #000000;text-anchor:start;font-family:sans-serif;font-style:normal;font-weight:normal" x="248" y="351.25">
    <tspan x="248" y="351.25">UID</tspan>
  </text>
  <text font-size="12.8" style="fill: #000000;text-anchor:start;font-family:sans-serif;font-style:normal;font-weight:normal" x="258" y="139.25">
    <tspan x="258" y="139.25"></tspan>
  </text>
  <text font-size="12.8" style="fill: #000000;text-anchor:start;font-family:sans-serif;font-style:normal;font-weight:normal" x="183" y="140.25">
    <tspan x="183" y="140.25">Document, Callback URL</tspan>
  </text>
  <g>
    <line style="fill: none; fill-opacity:0; stroke-width: 2; stroke: #ff0000" x1="412.026" y1="231.75" x2="600.265" y2="235.078"/>
    <polygon style="fill: #ff0000" points="607.764,235.21 597.677,240.033 600.265,235.078 597.854,230.034 "/>
    <polygon style="fill: none; fill-opacity:0; stroke-width: 2; stroke: #ff0000" points="607.764,235.21 597.677,240.033 600.265,235.078 597.854,230.034 "/>
  </g>
  <text font-size="12.8" style="fill: #000000;text-anchor:start;font-family:sans-serif;font-style:normal;font-weight:normal" x="212" y="135.25">
    <tspan x="212" y="135.25"></tspan>
  </text>
  <text font-size="12.8" style="fill: #000000;text-anchor:start;font-family:sans-serif;font-style:normal;font-weight:normal" x="485.8" y="224.85">
    <tspan x="485.8" y="224.85">Document</tspan>
  </text>
  <g>
    <line style="fill: none; fill-opacity:0; stroke-width: 2; stroke: #0000ff" x1="610" y1="250.25" x2="421.762" y2="250.725"/>
    <polygon style="fill: #0000ff" points="414.262,250.744 424.249,245.719 421.762,250.725 424.275,255.719 "/>
    <polygon style="fill: none; fill-opacity:0; stroke-width: 2; stroke: #0000ff" points="414.262,250.744 424.249,245.719 421.762,250.725 424.275,255.719 "/>
  </g>
  <text font-size="12.8" style="fill: #000000;text-anchor:start;font-family:sans-serif;font-style:normal;font-weight:normal" x="490" y="273.25">
    <tspan x="490" y="273.25">UID</tspan>
  </text>
  <g>
    <rect style="fill: #ffffff" x="772.216" y="83.6776" width="67.15" height="38"/>
    <rect style="fill: none; fill-opacity:0; stroke-width: 2; stroke: #000000" x="772.216" y="83.6776" width="67.15" height="38"/>
    <text font-size="12.8" style="fill: #000000;text-anchor:middle;font-family:sans-serif;font-style:normal;font-weight:normal" x="805.791" y="106.578">
      <tspan x="805.791" y="106.578">Worker</tspan>
    </text>
  </g>
  <g>
    <path style="fill: #ffffff" d="M 610 217.25 C 622,208.25 628,205.25 640,205.25 C 652,205.25 658,208.25 670,217.25 L 670,265.25 C 658,274.25 652,277.25 640,277.25 C 628,277.25 622,274.25 610,265.25 L 610,217.25z"/>
    <path style="fill: none; fill-opacity:0; stroke-width: 2; stroke: #000000" d="M 610 217.25 C 622,208.25 628,205.25 640,205.25 C 652,205.25 658,208.25 670,217.25 L 670,265.25 C 658,274.25 652,277.25 640,277.25 C 628,277.25 622,274.25 610,265.25 L 610,217.25"/>
    <path style="fill: none; fill-opacity:0; stroke-width: 2; stroke: #000000" d="M 610 217.25 C 622,226.25 628,229.25 640,229.25 C 652,229.25 658,226.25 670,217.25"/>
    <text font-size="12.8" style="fill: #000000;text-anchor:middle;font-family:sans-serif;font-style:normal;font-weight:normal" x="640" y="251.25">
      <tspan x="640" y="251.25">SAM</tspan>
    </text>
  </g>
  <g>
    <rect style="fill: #ffffff" x="488.329" y="82.621" width="115.55" height="38"/>
    <rect style="fill: none; fill-opacity:0; stroke-width: 2; stroke: #000000" x="488.329" y="82.621" width="115.55" height="38"/>
    <text font-size="12.8" style="fill: #000000;text-anchor:middle;font-family:sans-serif;font-style:normal;font-weight:normal" x="546.104" y="105.521">
      <tspan x="546.104" y="105.521">Queue Service</tspan>
    </text>
  </g>
  <g>
    <line style="fill: none; fill-opacity:0; stroke-width: 2; stroke: #00ff00" x1="388.012" y1="222.25" x2="481.514" y2="127.549"/>
    <polygon style="fill: #00ff00" points="486.783,122.212 483.315,132.841 481.514,127.549 476.199,125.815 "/>
    <polygon style="fill: none; fill-opacity:0; stroke-width: 2; stroke: #00ff00" points="486.783,122.212 483.315,132.841 481.514,127.549 476.199,125.815 "/>
  </g>
  <text font-size="12.8" style="fill: #000000;text-anchor:start;font-family:sans-serif;font-style:normal;font-weight:normal" x="457" y="171.25">
    <tspan x="457" y="171.25">UID, Callback URL</tspan>
  </text>
  <line style="fill: none; fill-opacity:0; stroke-width: 2; stroke: #00ff00" x1="603.854" y1="101.621" x2="772.216" y2="102.678"/>
  <text font-size="12.8" style="fill: #000000;text-anchor:start;font-family:sans-serif;font-style:normal;font-weight:normal" x="644" y="94.25">
    <tspan x="644" y="94.25">UID, Callback URL</tspan>
  </text>
  <g>
    <path style="fill: none; fill-opacity:0; stroke-width: 2; stroke: #000000" d="M 648.756,281.451 A 120.135,120.135 0 0 0 805.79,121.678"/>
    <polygon style="fill: #000000" points="641.975,278.298 653.152,278.568 648.601,281.813 648.466,287.402 "/>
    <polygon style="fill: none; fill-opacity:0; stroke-width: 2; stroke: #000000" points="641.975,278.298 653.152,278.568 648.601,281.813 648.466,287.402 "/>
  </g>
  <text font-size="12.8" style="fill: #000000;text-anchor:start;font-family:sans-serif;font-style:normal;font-weight:normal" x="645" y="314.25">
    <tspan x="645" y="314.25">Document grains</tspan>
  </text>
  <g>
    <rect style="fill: #ffffff" x="780.374" y="278.25" width="153.25" height="38"/>
    <rect style="fill: none; fill-opacity:0; stroke-width: 2; stroke: #000000" x="780.374" y="278.25" width="153.25" height="38"/>
    <text font-size="12.8" style="fill: #000000;text-anchor:middle;font-family:sans-serif;font-style:normal;font-weight:normal" x="856.999" y="301.15">
      <tspan x="856.999" y="301.15">External Web Server</tspan>
    </text>
  </g>
  <g>
    <path style="fill: none; fill-opacity:0; stroke-width: 2; stroke: #ffa500" d="M 865.264,273.174 A 95.792,95.792 0 0 0 839.366,102.678"/>
    <polygon style="fill: #ffa500" points="858.962,277.178 865.339,267.994 865.543,273.581 870.135,276.769 "/>
    <polygon style="fill: none; fill-opacity:0; stroke-width: 2; stroke: #ffa500" points="858.962,277.178 865.339,267.994 865.543,273.581 870.135,276.769 "/>
  </g>
  <text font-size="12.8" style="fill: #000000;text-anchor:start;font-family:sans-serif;font-style:normal;font-weight:normal" x="910" y="176.25">
    <tspan x="910" y="176.25">HTTP request with</tspan>
    <tspan x="910" y="192.25">all the document´s </tspan>
    <tspan x="910" y="208.25">grains uids</tspan>
  </text>
  <g>
    <line style="fill: none; fill-opacity:0; stroke-width: 2; stroke: #a29d1c" x1="670" y1="220.25" x2="765.208" y2="128.436"/>
    <polygon style="fill: #a29d1c" points="770.606,123.23 766.879,133.771 765.208,128.436 759.937,126.572 "/>
    <polygon style="fill: none; fill-opacity:0; stroke-width: 2; stroke: #a29d1c" points="770.606,123.23 766.879,133.771 765.208,128.436 759.937,126.572 "/>
  </g>
  <text font-size="12.8" style="fill: #000000;text-anchor:start;font-family:sans-serif;font-style:normal;font-weight:normal" x="649.14" y="167.222">
    <tspan x="649.14" y="167.222">Document</tspan>
  </text>
  <g>
    <ellipse style="fill: #ffffff" cx="124.853" cy="502.8" rx="6" ry="6"/>
    <ellipse style="fill: none; fill-opacity:0; stroke-width: 2; stroke: #000000" cx="124.853" cy="502.8" rx="6" ry="6"/>
    <line style="fill: none; fill-opacity:0; stroke-width: 2; stroke: #000000" x1="100.853" y1="514.8" x2="148.853" y2="514.8"/>
    <line style="fill: none; fill-opacity:0; stroke-width: 2; stroke: #000000" x1="124.853" y1="508.8" x2="124.853" y2="538.8"/>
    <line style="fill: none; fill-opacity:0; stroke-width: 2; stroke: #000000" x1="124.853" y1="538.8" x2="100.853" y2="564.8"/>
    <line style="fill: none; fill-opacity:0; stroke-width: 2; stroke: #000000" x1="124.853" y1="538.8" x2="148.853" y2="564.8"/>
    <text font-size="12.8" style="fill: #000000;text-anchor:middle;font-family:sans-serif;font-style:normal;font-weight:normal" x="124.853" y="588.7">
      <tspan x="124.853" y="588.7">User</tspan>
    </text>
  </g>
  <g>
    <rect style="fill: #ffffff" x="309.828" y="520.8" width="96.05" height="38"/>
    <rect style="fill: none; fill-opacity:0; stroke-width: 2; stroke: #000000" x="309.828" y="520.8" width="96.05" height="38"/>
    <text font-size="12.8" style="fill: #000000;text-anchor:middle;font-family:sans-serif;font-style:normal;font-weight:normal" x="357.853" y="543.7">
      <tspan x="357.853" y="543.7">Web Server</tspan>
    </text>
  </g>
  <g>
    <path style="fill: none; fill-opacity:0; stroke-width: 2; stroke: #ff0000" d="M 352.649,512.594 A 138.17,138.17 0 0 0 149.853,484.8"/>
    <polygon style="fill: #ff0000" points="356.723,518.871 347.353,512.771 352.931,512.4 355.981,507.715 "/>
    <polygon style="fill: none; fill-opacity:0; stroke-width: 2; stroke: #ff0000" points="356.723,518.871 347.353,512.771 352.931,512.4 355.981,507.715 "/>
  </g>
  <g>
    <path style="fill: none; fill-opacity:0; stroke-width: 2; stroke: #0000ff" d="M 156.769,599.622 A 126.988,126.988 0 0 0 357.854,558.8"/>
    <polygon style="fill: #0000ff" points="151.384,594.43 161.874,598.297 156.518,599.897 154.585,605.142 "/>
    <polygon style="fill: none; fill-opacity:0; stroke-width: 2; stroke: #0000ff" points="151.384,594.43 161.874,598.297 156.518,599.897 154.585,605.142 "/>
  </g>
  <text font-size="12.8" style="fill: #000000;text-anchor:start;font-family:sans-serif;font-style:normal;font-weight:normal" x="207.836" y="649.8">
    <tspan x="207.836" y="649.8">UID Status</tspan>
  </text>
  <text font-size="12.8" style="fill: #000000;text-anchor:start;font-family:sans-serif;font-style:normal;font-weight:normal" x="251.854" y="437.8">
    <tspan x="251.854" y="437.8"></tspan>
  </text>
  <text font-size="12.8" style="fill: #000000;text-anchor:start;font-family:sans-serif;font-style:normal;font-weight:normal" x="203.708" y="441.486">
    <tspan x="203.708" y="441.486">UID is done?</tspan>
  </text>
  <g>
    <line style="fill: none; fill-opacity:0; stroke-width: 2; stroke: #ff0000" x1="405.878" y1="530.3" x2="594.119" y2="533.628"/>
    <polygon style="fill: #ff0000" points="601.618,533.76 591.531,538.583 594.119,533.628 591.708,528.584 "/>
    <polygon style="fill: none; fill-opacity:0; stroke-width: 2; stroke: #ff0000" points="601.618,533.76 591.531,538.583 594.119,533.628 591.708,528.584 "/>
  </g>
  <text font-size="12.8" style="fill: #000000;text-anchor:start;font-family:sans-serif;font-style:normal;font-weight:normal" x="205.854" y="433.8">
    <tspan x="205.854" y="433.8"></tspan>
  </text>
  <text font-size="12.8" style="fill: #000000;text-anchor:start;font-family:sans-serif;font-style:normal;font-weight:normal" x="479.654" y="523.4">
    <tspan x="479.654" y="523.4">UID</tspan>
  </text>
  <g>
    <line style="fill: none; fill-opacity:0; stroke-width: 2; stroke: #0000ff" x1="603.854" y1="548.8" x2="415.614" y2="549.275"/>
    <polygon style="fill: #0000ff" points="408.114,549.294 418.101,544.269 415.614,549.275 418.127,554.269 "/>
    <polygon style="fill: none; fill-opacity:0; stroke-width: 2; stroke: #0000ff" points="408.114,549.294 418.101,544.269 415.614,549.275 418.127,554.269 "/>
  </g>
  <text font-size="12.8" style="fill: #000000;text-anchor:start;font-family:sans-serif;font-style:normal;font-weight:normal" x="471.32" y="571.8">
    <tspan x="471.32" y="571.8">UID Status</tspan>
  </text>
  <g>
    <path style="fill: #ffffff" d="M 603.854 515.8 C 615.854,506.8 621.854,503.8 633.854,503.8 C 645.854,503.8 651.854,506.8 663.854,515.8 L 663.854,563.8 C 651.854,572.8 645.854,575.8 633.854,575.8 C 621.854,575.8 615.854,572.8 603.854,563.8 L 603.854,515.8z"/>
    <path style="fill: none; fill-opacity:0; stroke-width: 2; stroke: #000000" d="M 603.854 515.8 C 615.854,506.8 621.854,503.8 633.854,503.8 C 645.854,503.8 651.854,506.8 663.854,515.8 L 663.854,563.8 C 651.854,572.8 645.854,575.8 633.854,575.8 C 621.854,575.8 615.854,572.8 603.854,563.8 L 603.854,515.8"/>
    <path style="fill: none; fill-opacity:0; stroke-width: 2; stroke: #000000" d="M 603.854 515.8 C 615.854,524.8 621.854,527.8 633.854,527.8 C 645.854,527.8 651.854,524.8 663.854,515.8"/>
    <text font-size="12.8" style="fill: #000000;text-anchor:middle;font-family:sans-serif;font-style:normal;font-weight:normal" x="633.854" y="549.8">
      <tspan x="633.854" y="549.8">SAM</tspan>
    </text>
  </g>
  <text font-size="12.8" style="fill: #000000;text-anchor:start;font-family:sans-serif;font-style:normal;font-weight:700" x="100.896" y="108.262">
    <tspan x="100.896" y="108.262">Totally asynchronous</tspan>
  </text>
  <text font-size="12.8" style="fill: #000000;text-anchor:start;font-family:sans-serif;font-style:normal;font-weight:700" x="101.582" y="406.356">
    <tspan x="101.582" y="406.356">Partially asynchronous, assuming the user already sent the document</tspan>
  </text>
  <g>
    <line style="fill: none; fill-opacity:0; stroke-width: 2; stroke: #00ff00" x1="789.004" y1="121.678" x2="677.043" y2="228.528"/>
    <polygon style="fill: #00ff00" points="671.618,233.706 675.4,223.185 677.043,228.528 682.304,230.419 "/>
    <polygon style="fill: none; fill-opacity:0; stroke-width: 2; stroke: #00ff00" points="671.618,233.706 675.4,223.185 677.043,228.528 682.304,230.419 "/>
  </g>
  <text font-size="12.8" style="fill: #000000;text-anchor:start;font-family:sans-serif;font-style:normal;font-weight:normal" x="718.608" y="210.192">
    <tspan x="718.608" y="210.192">UID</tspan>
  </text>
  <g>
    <rect style="fill: #ffffff" x="761.792" y="483.526" width="97.8162" height="102"/>
    <rect style="fill: none; fill-opacity:0; stroke-width: 2; stroke: #000000" x="761.792" y="483.526" width="97.8162" height="102"/>
    <text font-size="12.8" style="fill: #000000;text-anchor:middle;font-family:sans-serif;font-style:normal;font-weight:normal" x="810.7" y="538.426">
      <tspan x="810.7" y="538.426"></tspan>
    </text>
  </g>
  <line style="fill: none; fill-opacity:0; stroke-width: 2; stroke: #000000" x1="772.488" y1="556.316" x2="803.818" y2="557.212"/>
  <line style="fill: none; fill-opacity:0; stroke-width: 2; stroke: #a29d1c" x1="772.488" y1="540.462" x2="803.818" y2="541.356"/>
  <line style="fill: none; fill-opacity:0; stroke-width: 2; stroke: #00ff00" x1="772.488" y1="524.606" x2="803.818" y2="525.5"/>
  <line style="fill: none; fill-opacity:0; stroke-width: 2; stroke: #0000ff" x1="772.488" y1="508.75" x2="803.818" y2="509.646"/>
  <line style="fill: none; fill-opacity:0; stroke-width: 2; stroke: #ff0000" x1="772.488" y1="492.894" x2="803.818" y2="493.79"/>
  <text font-size="12.8" style="fill: #000000;text-anchor:start;font-family:sans-serif;font-style:normal;font-weight:normal" x="811.4" y="497.314">
    <tspan x="811.4" y="497.314">First</tspan>
  </text>
  <text font-size="12.8" style="fill: #000000;text-anchor:start;font-family:sans-serif;font-style:normal;font-weight:normal" x="809.408" y="513.724">
    <tspan x="809.408" y="513.724">Second</tspan>
  </text>
  <text font-size="12.8" style="fill: #000000;text-anchor:start;font-family:sans-serif;font-style:normal;font-weight:normal" x="809.208" y="530.134">
    <tspan x="809.208" y="530.134">Third</tspan>
  </text>
  <text font-size="12.8" style="fill: #000000;text-anchor:start;font-family:sans-serif;font-style:normal;font-weight:normal" x="812.008" y="546.544">
    <tspan x="812.008" y="546.544">Fourth</tspan>
  </text>
  <text font-size="12.8" style="fill: #000000;text-anchor:start;font-family:sans-serif;font-style:normal;font-weight:normal" x="811.808" y="561.328">
    <tspan x="811.808" y="561.328">Fifth</tspan>
  </text>
  <line style="fill: none; fill-opacity:0; stroke-width: 2; stroke: #ffa500" x1="773.436" y1="572.44" x2="804.766" y2="573.334"/>
  <text font-size="12.8" style="fill: #000000;text-anchor:start;font-family:sans-serif;font-style:normal;font-weight:normal" x="811.756" y="577.45">
    <tspan x="811.756" y="577.45">Sixth</tspan>
  </text>
  <text font-size="12.8" style="fill: #000000;text-anchor:start;font-family:sans-serif;font-style:normal;font-weight:normal" x="356" y="201">
    <tspan x="356" y="201">Cyclone</tspan>
  </text>
  <text font-size="12.8" style="fill: #000000;text-anchor:start;font-family:sans-serif;font-style:normal;font-weight:normal" x="509" y="76">
    <tspan x="509" y="76">RabbitMQ</tspan>
  </text>
  <text font-size="12.8" style="fill: #000000;text-anchor:start;font-family:sans-serif;font-style:normal;font-weight:normal" x="640" y="47">
    <tspan x="640" y="47">Celery</tspan>
  </text>
  <text font-size="12.8" style="fill: #000000;text-anchor:start;font-family:sans-serif;font-style:normal;font-weight:normal" x="356" y="503.516">
    <tspan x="356" y="503.516">Cyclone</tspan>
  </text>
</svg>
